<svg width="47" height="47" viewBox="0 0 47 47" fill="none" xmlns="http://www.w3.org/2000/svg">
<path d="M23.2832 16.6726C25.7619 16.6726 26.0555 16.6821 27.0344 16.7268C27.9395 16.768 28.431 16.9193 28.7581 17.0464C29.1914 17.2148 29.5007 17.416 29.8255 17.7408C30.1504 18.0657 30.3515 18.3749 30.5199 18.8082C30.6471 19.1353 30.7983 19.6269 30.8396 20.532C30.8842 21.5108 30.8937 21.8044 30.8937 24.2831C30.8937 26.7618 30.8842 27.0555 30.8396 28.0343C30.7983 28.9394 30.6471 29.431 30.5199 29.7581C30.3515 30.1914 30.1504 30.5006 29.8256 30.8255C29.5007 31.1503 29.1914 31.3515 28.7581 31.5199C28.431 31.647 27.9395 31.7983 27.0344 31.8395C26.0557 31.8842 25.7621 31.8937 23.2832 31.8937C20.8043 31.8937 20.5107 31.8842 19.532 31.8395C18.6269 31.7983 18.1353 31.647 17.8082 31.5199C17.3749 31.3515 17.0657 31.1503 16.7408 30.8255C16.416 30.5006 16.2148 30.1914 16.0464 29.7581C15.9193 29.431 15.768 28.9394 15.7268 28.0343C15.6821 27.0555 15.6726 26.7618 15.6726 24.2831C15.6726 21.8044 15.6821 21.5108 15.7268 20.532C15.768 19.6269 15.9193 19.1353 16.0464 18.8082C16.2148 18.3749 16.416 18.0657 16.7408 17.7408C17.0657 17.416 17.3749 17.2148 17.8082 17.0464C18.1353 16.9193 18.6269 16.768 19.532 16.7268C20.5109 16.6821 20.8045 16.6726 23.2832 16.6726ZM23.2832 15C20.762 15 20.4459 15.0107 19.4557 15.0559C18.4677 15.1009 17.7928 15.2579 17.2023 15.4873C16.5919 15.7246 16.0742 16.042 15.5581 16.5581C15.042 17.0742 14.7246 17.5919 14.4874 18.2023C14.2579 18.7928 14.1009 19.4676 14.0559 20.4557C14.0107 21.4459 14 21.762 14 24.2831C14 26.8043 14.0107 27.1204 14.0559 28.1106C14.1009 29.0987 14.2579 29.7735 14.4874 30.364C14.7246 30.9744 15.042 31.4921 15.5581 32.0082C16.0742 32.5243 16.5919 32.8417 17.2023 33.0789C17.7928 33.3084 18.4677 33.4654 19.4557 33.5104C20.4459 33.5556 20.762 33.5663 23.2832 33.5663C25.8043 33.5663 26.1205 33.5556 27.1106 33.5104C28.0987 33.4654 28.7735 33.3084 29.364 33.0789C29.9745 32.8417 30.4922 32.5243 31.0083 32.0082C31.5244 31.4921 31.8418 30.9744 32.079 30.364C32.3085 29.7735 32.4654 29.0987 32.5105 28.1106C32.5557 27.1204 32.5664 26.8043 32.5664 24.2831C32.5664 21.762 32.5557 21.4459 32.5105 20.4557C32.4654 19.4676 32.3085 18.7928 32.079 18.2023C31.8418 17.5919 31.5244 17.0742 31.0083 16.5581C30.4922 16.042 29.9745 15.7246 29.364 15.4873C28.7735 15.2579 28.0987 15.1009 27.1106 15.0559C26.1205 15.0107 25.8043 15 23.2832 15Z" fill="white"/>
<path d="M23.2876 19.5205C20.6548 19.5205 18.5205 21.6548 18.5205 24.2875C18.5205 26.9203 20.6548 29.0545 23.2876 29.0545C25.9203 29.0545 28.0546 26.9203 28.0546 24.2875C28.0546 21.6548 25.9203 19.5205 23.2876 19.5205ZM23.2876 27.3819C21.5785 27.3819 20.1932 25.9965 20.1932 24.2875C20.1932 22.5785 21.5785 21.1931 23.2876 21.1931C24.9965 21.1931 26.3819 22.5785 26.3819 24.2875C26.3819 25.9965 24.9965 27.3819 23.2876 27.3819Z" fill="white"/>
<path d="M29.3565 19.3293C29.3565 19.9445 28.8577 20.4433 28.2425 20.4433C27.6273 20.4433 27.1285 19.9445 27.1285 19.3293C27.1285 18.7141 27.6273 18.2153 28.2425 18.2153C28.8577 18.2153 29.3565 18.7141 29.3565 19.3293Z" fill="white"/>
<circle cx="23.5" cy="23.5" r="23" stroke="white"/>
</svg>
