<svg width="48" height="47" viewBox="0 0 48 47" fill="none" xmlns="http://www.w3.org/2000/svg">
<path fill-rule="evenodd" clip-rule="evenodd" d="M33.855 18.9953C34.1811 19.2835 34.4161 19.6422 34.5366 20.0357C35.2302 22.5036 35.0699 26.4012 34.55 28.9643C34.4296 29.3578 34.1946 29.7165 33.8685 30.0047C33.5424 30.293 33.1366 30.5007 32.6914 30.6071C31.0618 31 24.5028 31 24.5028 31C24.5028 31 17.9439 31 16.3143 30.6071C15.8691 30.5007 15.4633 30.293 15.1372 30.0047C14.8111 29.7165 14.5761 29.3578 14.4557 28.9643C13.758 26.5071 13.9493 22.6071 14.4422 20.0476C14.5626 19.6541 14.7976 19.2954 15.1237 19.0072C15.4498 18.7189 15.8556 18.5112 16.3008 18.4048C17.9304 18.0119 24.4894 18 24.4894 18C24.4894 18 31.0483 18 32.678 18.3929C33.1231 18.4993 33.5289 18.707 33.855 18.9953ZM27.8429 24.5L22.4018 27.2857V21.7143L27.8429 24.5Z" fill="white"/>
<path d="M47.5 23.5C47.5 36.1927 36.9887 46.5 24 46.5C11.0113 46.5 0.5 36.1927 0.5 23.5C0.5 10.8073 11.0113 0.5 24 0.5C36.9887 0.5 47.5 10.8073 47.5 23.5Z" stroke="white"/>
</svg>
